<?xml version="1.0" encoding="UTF-8"?>
<!DOCTYPE svg PUBLIC "-//W3C//DTD SVG 1.1//EN" "http://www.w3.org/Graphics/SVG/1.1/DTD/svg11.dtd">
<svg xmlns="http://www.w3.org/2000/svg" version="1.1" width="114px" height="111px" style="shape-rendering:geometricPrecision; text-rendering:geometricPrecision; image-rendering:optimizeQuality; fill-rule:evenodd; clip-rule:evenodd" xmlns:xlink="http://www.w3.org/1999/xlink">
<g><path style="opacity:1" fill="#eb8f51" d="M 68.5,-0.5 C 69.8333,-0.5 71.1667,-0.5 72.5,-0.5C 77.7861,0.740454 82.7861,2.74045 87.5,5.5C 81.0612,3.64389 74.7279,1.64389 68.5,-0.5 Z"/></g>
<g><path style="opacity:0.999" fill="#474747" d="M 53.5,-0.5 C 54.8333,-0.5 56.1667,-0.5 57.5,-0.5C 57.4142,0.495904 57.7476,1.32924 58.5,2C 62.5414,3.41933 66.5414,4.91933 70.5,6.5C 71.1667,6.83333 71.8333,7.16667 72.5,7.5C 74.3025,11.2516 75.3025,15.2516 75.5,19.5C 61.1603,15.2854 47.4937,17.1187 34.5,25C 21.0777,31.9192 11.7444,42.4192 6.5,56.5C 5.67618,60.3123 5.17618,64.3123 5,68.5C 4.61742,69.056 4.11742,69.3893 3.5,69.5C 1.88642,66.6077 0.553086,63.6077 -0.5,60.5C -0.5,54.8333 -0.5,49.1667 -0.5,43.5C 0.73077,40.3133 1.89744,36.98 3,33.5C 4.11596,30.2444 5.94929,27.5777 8.5,25.5C 9.90632,25.0269 10.573,24.0269 10.5,22.5C 22.149,9.8418 36.4823,2.17514 53.5,-0.5 Z"/></g>
<g><path style="opacity:1" fill="#603f25" d="M 57.5,-0.5 C 58.1667,-0.5 58.8333,-0.5 59.5,-0.5C 60.9488,1.16441 62.9488,1.99775 65.5,2C 67.2395,3.51695 68.9062,5.01695 70.5,6.5C 66.5414,4.91933 62.5414,3.41933 58.5,2C 57.7476,1.32924 57.4142,0.495904 57.5,-0.5 Z"/></g>
<g><path style="opacity:1" fill="#fa690d" d="M 59.5,-0.5 C 62.5,-0.5 65.5,-0.5 68.5,-0.5C 74.7279,1.64389 81.0612,3.64389 87.5,5.5C 89.4113,6.07501 91.078,7.07501 92.5,8.5C 92.427,10.0269 93.0937,11.0269 94.5,11.5C 95.3382,11.8417 95.6716,12.5084 95.5,13.5C 95.0833,17.8346 94.5833,22.1679 94,26.5C 91.9353,28.7366 90.7686,31.4033 90.5,34.5C 90.2624,36.4044 89.2624,37.7377 87.5,38.5C 86.5041,38.5858 85.6708,38.2524 85,37.5C 84.5065,39.1341 84.3398,40.8008 84.5,42.5C 79.1569,48.8425 73.1569,54.5092 66.5,59.5C 64.901,59.2322 63.5676,59.5655 62.5,60.5C 61.4764,58.4884 59.9764,56.8217 58,55.5C 56.7741,57.5477 55.2741,57.881 53.5,56.5C 53.5,55.1667 53.5,53.8333 53.5,52.5C 57.5315,50.9857 60.5315,48.319 62.5,44.5C 62.8102,42.8564 63.8102,41.8564 65.5,41.5C 67.9354,40.7298 69.2687,39.0632 69.5,36.5C 72.0442,35.2921 73.3775,33.2921 73.5,30.5C 75.3757,27.0791 76.3757,23.4124 76.5,19.5C 76.9313,14.793 75.598,10.793 72.5,7.5C 71.8333,7.16667 71.1667,6.83333 70.5,6.5C 68.9062,5.01695 67.2395,3.51695 65.5,2C 62.9488,1.99775 60.9488,1.16441 59.5,-0.5 Z"/></g>
<g><path style="opacity:1" fill="#e1955d" d="M 92.5,8.5 C 93.9063,8.97306 94.573,9.97306 94.5,11.5C 93.0937,11.0269 92.427,10.0269 92.5,8.5 Z"/></g>
<g><path style="opacity:1" fill="#643a22" d="M 72.5,7.5 C 75.598,10.793 76.9313,14.793 76.5,19.5C 76.1667,19.5 75.8333,19.5 75.5,19.5C 75.3025,15.2516 74.3025,11.2516 72.5,7.5 Z"/></g>
<g><path style="opacity:0.749" fill="#949494" d="M 10.5,22.5 C 10.573,24.0269 9.90632,25.0269 8.5,25.5C 8.42702,23.9731 9.09368,22.9731 10.5,22.5 Z"/></g>
<g><path style="opacity:1" fill="#e88541" d="M 95.5,13.5 C 96.5325,14.9117 97.1992,16.5784 97.5,18.5C 96.6933,24.6161 94.36,29.9494 90.5,34.5C 90.7686,31.4033 91.9353,28.7366 94,26.5C 94.5833,22.1679 95.0833,17.8346 95.5,13.5 Z"/></g>
<g><path style="opacity:1" fill="#ec9155" d="M 73.5,30.5 C 73.3775,33.2921 72.0442,35.2921 69.5,36.5C 70.4486,34.2228 71.7819,32.2228 73.5,30.5 Z"/></g>
<g><path style="opacity:1" fill="#f58844" d="M 87.5,38.5 C 87.2624,40.4044 86.2624,41.7377 84.5,42.5C 84.3398,40.8008 84.5065,39.1341 85,37.5C 85.6708,38.2524 86.5041,38.5858 87.5,38.5 Z"/></g>
<g><path style="opacity:1" fill="#ef8741" d="M 69.5,36.5 C 69.2687,39.0632 67.9354,40.7298 65.5,41.5C 66.0798,39.2512 67.4131,37.5846 69.5,36.5 Z"/></g>
<g><path style="opacity:1" fill="#ee9356" d="M 62.5,44.5 C 60.5315,48.319 57.5315,50.9857 53.5,52.5C 56.3436,49.591 59.3436,46.9243 62.5,44.5 Z"/></g>
<g><path style="opacity:1" fill="#ee7a34" d="M 53.5,52.5 C 53.5,53.8333 53.5,55.1667 53.5,56.5C 51.3146,56.7036 49.3146,57.3702 47.5,58.5C 49.1667,56.1667 51.1667,54.1667 53.5,52.5 Z"/></g>
<g><path style="opacity:1" fill="#fb6705" d="M 62.5,60.5 C 62.5476,61.5071 61.5476,61.8404 59.5,61.5C 59.5,63.1667 59.5,64.8333 59.5,66.5C 59.5,67.1667 59.1667,67.5 58.5,67.5C 56.712,67.2148 55.0453,67.5481 53.5,68.5C 54.4908,70.1227 53.8241,71.1227 51.5,71.5C 50.5344,73.396 50.2011,75.396 50.5,77.5C 50.6716,78.4916 50.3382,79.1583 49.5,79.5C 47.8235,80.1834 47.1568,81.5168 47.5,83.5C 46.6851,84.4293 45.8518,85.4293 45,86.5C 44.3333,90.5 44.3333,94.5 45,98.5C 46.129,100.141 47.629,101.141 49.5,101.5C 49.5394,102.583 49.8728,103.583 50.5,104.5C 50,104.833 49.5,105.167 49,105.5C 45.2079,104.562 41.3746,103.896 37.5,103.5C 33.8698,103.299 31.2031,101.632 29.5,98.5C 28.2258,92.508 28.2258,86.508 29.5,80.5C 29.5,80.1667 29.5,79.8333 29.5,79.5C 31.0481,79.1788 31.7148,78.1788 31.5,76.5C 33.4327,72.302 36.0994,68.6353 39.5,65.5C 42.4274,64.2427 44.7607,62.2427 46.5,59.5C 46.5,58.8333 46.8333,58.5 47.5,58.5C 49.3146,57.3702 51.3146,56.7036 53.5,56.5C 55.2741,57.881 56.7741,57.5477 58,55.5C 59.9764,56.8217 61.4764,58.4884 62.5,60.5 Z"/></g>
<g><path style="opacity:0.843" fill="#f5a877" d="M 46.5,59.5 C 44.7607,62.2427 42.4274,64.2427 39.5,65.5C 41.2393,62.7573 43.5726,60.7573 46.5,59.5 Z"/></g>
<g><path style="opacity:1" fill="#f48038" d="M 62.5,60.5 C 63.5676,59.5655 64.901,59.2322 66.5,59.5C 64.5,62.1667 62.1667,64.5 59.5,66.5C 59.5,64.8333 59.5,63.1667 59.5,61.5C 61.5476,61.8404 62.5476,61.5071 62.5,60.5 Z"/></g>
<g><path style="opacity:0.99" fill="#747474" d="M 6.5,56.5 C 5.57552,64.2897 6.90886,71.623 10.5,78.5C 10.1543,79.6956 9.65431,79.6956 9,78.5C 6.64225,75.7777 4.80891,72.7777 3.5,69.5C 4.11742,69.3893 4.61742,69.056 5,68.5C 5.17618,64.3123 5.67618,60.3123 6.5,56.5 Z"/></g>
<g><path style="opacity:1" fill="#f2792e" d="M 58.5,67.5 C 56.1829,71.1464 53.5162,74.4797 50.5,77.5C 50.2011,75.396 50.5344,73.396 51.5,71.5C 53.8241,71.1227 54.4908,70.1227 53.5,68.5C 55.0453,67.5481 56.712,67.2148 58.5,67.5 Z"/></g>
<g><path style="opacity:0.224" fill="#d1d2d1" d="M 110.5,77.5 C 111.833,78.1667 111.833,78.1667 110.5,77.5 Z"/></g>
<g><path style="opacity:1" fill="#e59d65" d="M 31.5,76.5 C 31.7148,78.1788 31.0481,79.1788 29.5,79.5C 29.9321,78.2905 30.5987,77.2905 31.5,76.5 Z"/></g>
<g><path style="opacity:0.227" fill="#c1c1c1" d="M 108.5,81.5 C 108.517,79.9719 109.184,79.4719 110.5,80C 109.956,80.7172 109.289,81.2172 108.5,81.5 Z"/></g>
<g><path style="opacity:1" fill="#c16c34" d="M 49.5,79.5 C 49.5,79.8333 49.5,80.1667 49.5,80.5C 48.8333,81.5 48.1667,82.5 47.5,83.5C 47.1568,81.5168 47.8235,80.1834 49.5,79.5 Z"/></g>
<g><path style="opacity:1" fill="#686868" d="M 108.5,81.5 C 105.167,88.1667 100.167,93.1667 93.5,96.5C 93.7512,94.8297 94.4178,93.3297 95.5,92C 95.2716,91.6012 94.9382,91.4346 94.5,91.5C 99.1582,88.1694 103.825,84.8361 108.5,81.5 Z"/></g>
<g><path style="opacity:1" fill="#e47934" d="M 29.5,80.5 C 28.2258,86.508 28.2258,92.508 29.5,98.5C 27.2445,96.2414 26.2445,93.408 26.5,90C 26.427,86.3896 27.427,83.223 29.5,80.5 Z"/></g>
<g><path style="opacity:0.999" fill="#515151" d="M 94.5,91.5 C 94.9382,91.4346 95.2716,91.6012 95.5,92C 94.4178,93.3297 93.7512,94.8297 93.5,96.5C 83.4263,103.746 72.093,107.413 59.5,107.5C 59.5,107.167 59.5,106.833 59.5,106.5C 61.5273,106.662 63.5273,106.495 65.5,106C 64.8333,105 64.1667,104 63.5,103C 63.5659,101.261 64.2326,99.4277 65.5,97.5C 65.0576,96.2613 64.3909,95.2613 63.5,94.5C 74.1438,96.4398 84.4772,95.4398 94.5,91.5 Z"/></g>
<g><path style="opacity:1" fill="#cd6624" d="M 47.5,83.5 C 47.0843,86.4059 46.4176,89.2393 45.5,92C 45.5825,95.7622 46.9159,98.9288 49.5,101.5C 47.629,101.141 46.129,100.141 45,98.5C 44.3333,94.5 44.3333,90.5 45,86.5C 45.8518,85.4293 46.6851,84.4293 47.5,83.5 Z"/></g>
<g><path style="opacity:1" fill="#45413f" d="M 49.5,80.5 C 51.8111,87.4778 56.4778,92.1444 63.5,94.5C 64.3909,95.2613 65.0576,96.2613 65.5,97.5C 64.2326,99.4277 63.5659,101.261 63.5,103C 64.1667,104 64.8333,105 65.5,106C 63.5273,106.495 61.5273,106.662 59.5,106.5C 58.791,105.596 57.791,105.263 56.5,105.5C 54.1705,104.17 51.8372,102.836 49.5,101.5C 46.9159,98.9288 45.5825,95.7622 45.5,92C 46.4176,89.2393 47.0843,86.4059 47.5,83.5C 48.1667,82.5 48.8333,81.5 49.5,80.5 Z"/></g>
<g><path style="opacity:1" fill="#e17124" d="M 49.5,101.5 C 51.8372,102.836 54.1705,104.17 56.5,105.5C 54.3926,106.468 52.0593,106.802 49.5,106.5C 45.0981,106.692 41.0981,105.692 37.5,103.5C 41.3746,103.896 45.2079,104.562 49,105.5C 49.5,105.167 50,104.833 50.5,104.5C 49.8728,103.583 49.5394,102.583 49.5,101.5 Z"/></g>
<g><path style="opacity:0.898" fill="#e28b51" d="M 56.5,105.5 C 57.791,105.263 58.791,105.596 59.5,106.5C 59.5,106.833 59.5,107.167 59.5,107.5C 55.9581,107.813 52.6248,107.479 49.5,106.5C 52.0593,106.802 54.3926,106.468 56.5,105.5 Z"/></g>
</svg>
